<svg width="32" height="31" viewBox="0 0 32 31" fill="none" xmlns="http://www.w3.org/2000/svg">
<g clip-path="url(#clip0_50_3969)">
<mask id="mask0_50_3969" style="mask-type:luminance" maskUnits="userSpaceOnUse" x="0" y="0" width="32" height="31">
<path d="M31.1382 0H0V30.24H31.1382V0Z" fill="white"/>
</mask>
<g mask="url(#mask0_50_3969)">
<path d="M5.16175 10.6349C5.16175 12.4313 5.17374 14.2158 5.16175 16.0122C5.16175 16.5272 5.26954 16.7547 5.84442 16.7188C6.50311 16.6709 7.17376 16.7188 7.84444 16.6948C10.7786 16.623 13.3655 14.5032 13.8685 11.7726C14.3835 8.97016 12.7906 6.21562 10.0121 5.10185C8.65883 4.55094 7.24561 4.64674 5.83243 4.6228C5.32944 4.6228 5.16175 4.76651 5.16175 5.2695C5.18573 7.06594 5.16175 8.85039 5.16175 10.6468M0.0119762 10.6349C0.0119762 7.38929 0.0359287 4.1557 0 0.922133C0 0.239486 0.107786 -0.0239907 0.886241 -3.82453e-05C3.26951 0.0598431 5.66474 0.011938 8.04802 0.0239142C13.9882 0.0478666 18.8745 4.6228 19.0901 10.3594C19.3057 16.0002 14.7906 20.8506 8.88638 21.2937C6.11986 21.4973 3.34137 21.3296 0.562882 21.3895C-0.0718574 21.4015 0.0119762 21.0302 0.0119762 20.647V10.6229" fill="#8C8A95"/>
<path d="M15.2701 30.24C15.1024 30.0963 14.9587 29.9765 14.815 29.8448C13.9407 29.0184 13.0784 28.1561 12.1682 27.3657C11.6892 26.9465 11.6652 26.695 12.1562 26.24C16.0365 22.6231 19.8809 18.9824 23.7492 15.3416C24.887 14.2637 26.0367 13.2098 27.1625 12.108C27.5218 11.7487 27.7373 11.7607 28.0847 12.108C28.9948 13.0182 29.941 13.9044 30.8991 14.7667C31.2344 15.0661 31.1865 15.2338 30.8871 15.5212C25.7972 20.2997 20.7312 25.0902 15.6533 29.8807C15.5335 29.9885 15.4138 30.0963 15.2701 30.228" fill="#8C8A95"/>
</g>
</g>
<defs>
<clipPath id="clip0_50_3969">
<rect width="31.32" height="30.24" fill="white"/>
</clipPath>
</defs>
</svg>
